Coordinates
version=1
nRows=37
nColumns=38
inDegrees=no

Units are S.I. units (second, meters, Newtons, ...)
If the header above contains a line with 'inDegrees', this indicates whether rotational values are in degrees (yes) or radians (no).

endheader
time	pelvis_tilt	pelvis_list	pelvis_rotation	pelvis_tx	pelvis_ty	pelvis_tz	hip_flexion_r	hip_adduction_r	hip_rotation_r	knee_angle_r	ankle_angle_r	subtalar_angle_r	mtp_angle_r	hip_flexion_l	hip_adduction_l	hip_rotation_l	knee_angle_l	ankle_angle_l	subtalar_angle_l	mtp_angle_l	lumbar_extension	lumbar_bending	lumbar_rotation	arm_flex_r	arm_add_r	arm_rot_r	elbow_flex_r	pro_sup_r	wrist_flex_r	wrist_dev_r	arm_flex_l	arm_add_l	arm_rot_l	elbow_flex_l	pro_sup_l	wrist_flex_l	wrist_dev_l
71.17	-0.203109	1.37667	1.73653	0.683008	0.171061	0.956092	0.632771	-0.382233	-0.542358	0.925923	0.21922	0	0	0.502324	-0.232887	-0.689795	0.772205	0.29506	0	0	-0.499127	0.00762554	0.0605955	0.520392	-0.435129	-0.0869684	1.28048	0.878209	0	0	0.535337	-0.396351	0.0754868	1.23374	0.831031	0	0
71.18	-0.201717	1.38209	1.73452	0.683244	0.172179	0.960011	0.616038	-0.369658	-0.538881	0.902457	0.215371	0	0	0.486968	-0.223693	-0.68507	0.746125	0.285847	0	0	-0.491586	0.00800191	0.0612592	0.507237	-0.435725	-0.0890793	1.28509	0.877113	0	0	0.52056	-0.39554	0.0695503	1.24148	0.834731	0	0
71.19	-0.199489	1.38761	1.7321	0.683465	0.173205	0.963862	0.599596	-0.357322	-0.534901	0.879332	0.210478	0	0	0.472005	-0.214814	-0.679029	0.720982	0.276332	0	0	-0.484367	0.00862185	0.0614828	0.495064	-0.436007	-0.0912896	1.28912	0.876774	0	0	0.506431	-0.394426	0.0635022	1.24908	0.837434	0	0
71.2	-0.196413	1.39367	1.72912	0.683681	0.174209	0.967696	0.582763	-0.34511	-0.530592	0.856519	0.205013	0	0	0.456683	-0.206192	-0.672522	0.695844	0.265551	0	0	-0.477728	0.00962873	0.0614116	0.483529	-0.436161	-0.0934167	1.2929	0.877121	0	0	0.49275	-0.393071	0.0572587	1.25625	0.83984	0	0
71.21	-0.192357	1.39998	1.72538	0.683904	0.175129	0.971477	0.565932	-0.332966	-0.526026	0.834111	0.199573	0	0	0.441498	-0.197736	-0.665486	0.670771	0.253444	0	0	-0.471534	0.011037	0.0612016	0.472497	-0.43645	-0.0953058	1.2967	0.877744	0	0	0.47995	-0.392012	0.0517227	1.26208	0.842872	0	0
71.22	-0.187004	1.40718	1.72095	0.684089	0.176067	0.975286	0.547391	-0.321025	-0.52279	0.811111	0.194167	0	0	0.425158	-0.189324	-0.657751	0.645153	0.241682	0	0	-0.46614	0.0131597	0.060565	0.461963	-0.436837	-0.0968425	1.30019	0.877778	0	0	0.468062	-0.390502	0.0461757	1.26653	0.848107	0	0
71.23	-0.18004	1.41497	1.71504	0.684296	0.176967	0.979056	0.527795	-0.309088	-0.520575	0.787897	0.188573	0	0	0.407936	-0.181275	-0.649789	0.619259	0.230932	0	0	-0.461429	0.0155496	0.0600535	0.451982	-0.437095	-0.0985919	1.30334	0.877433	0	0	0.457472	-0.388584	0.0412122	1.27005	0.853435	0	0
71.24	-0.172111	1.42267	1.70782	0.684549	0.177847	0.982675	0.508007	-0.297342	-0.519188	0.764113	0.182861	0	0	0.390413	-0.173424	-0.642488	0.592642	0.219768	0	0	-0.456206	0.017704	0.0599315	0.442214	-0.437061	-0.10074	1.30581	0.877442	0	0	0.447289	-0.386464	0.0367414	1.27322	0.857979	0	0
71.25	-0.164096	1.43031	1.70012	0.684862	0.178711	0.986133	0.48797	-0.286095	-0.51887	0.739863	0.177098	0	0	0.372643	-0.165689	-0.635637	0.565669	0.208486	0	0	-0.450803	0.0194158	0.0599426	0.433155	-0.436867	-0.102482	1.30732	0.877703	0	0	0.437083	-0.384302	0.0320045	1.2766	0.862601	0	0
71.26	-0.154525	1.438	1.69051	0.685244	0.179528	0.989432	0.467877	-0.275235	-0.519538	0.715717	0.171211	0	0	0.354872	-0.158466	-0.628613	0.53929	0.197414	0	0	-0.445633	0.0208909	0.0601349	0.425365	-0.437219	-0.102286	1.30767	0.87859	0	0	0.426903	-0.382305	0.0269121	1.2798	0.867613	0	0
71.27	-0.143349	1.4457	1.67897	0.6857	0.180276	0.992569	0.448005	-0.264914	-0.521125	0.692144	0.165235	0	0	0.337188	-0.151863	-0.621641	0.513604	0.185749	0	0	-0.440839	0.0221223	0.0605599	0.418597	-0.437983	-0.100732	1.30715	0.879294	0	0	0.417048	-0.380493	0.0217239	1.28271	0.871693	0	0
71.28	-0.130592	1.45324	1.66524	0.686229	0.180979	0.995535	0.428659	-0.255088	-0.523465	0.669293	0.159389	0	0	0.319603	-0.145985	-0.615319	0.48856	0.173197	0	0	-0.436133	0.0231174	0.0615008	0.412348	-0.439264	-0.0984365	1.30633	0.878756	0	0	0.407557	-0.378809	0.0170022	1.28558	0.874283	0	0
71.29	-0.114675	1.46057	1.64799	0.686781	0.181659	0.998334	0.409549	-0.24565	-0.527045	0.646813	0.153777	0	0	0.302172	-0.14088	-0.610053	0.46424	0.162149	0	0	-0.431582	0.0243652	0.0628417	0.406112	-0.441032	-0.0958405	1.30623	0.879311	0	0	0.398298	-0.377284	0.01275	1.28841	0.874186	0	0
71.3	-0.091731	1.4676	1.62371	0.687334	0.182333	1.00098	0.390488	-0.236187	-0.532258	0.624361	0.148455	0	0	0.285088	-0.136769	-0.605571	0.440464	0.151792	0	0	-0.426894	0.0264016	0.064477	0.399905	-0.443419	-0.0928363	1.307	0.876638	0	0	0.389281	-0.374934	0.00770834	1.29081	0.88147	0	0
71.31	-0.0631337	1.4736	1.59334	0.687952	0.182955	1.0034	0.372573	-0.226552	-0.537917	0.601897	0.143346	0	0	0.269194	-0.133636	-0.602554	0.417617	0.141847	0	0	-0.421285	0.0285948	0.0669419	0.393261	-0.445642	-0.0912261	1.30824	0.878415	0	0	0.380633	-0.372524	0.00415461	1.29341	0.879096	0	0
71.32	-0.028915	1.47913	1.55777	0.688542	0.183544	1.0057	0.354584	-0.216885	-0.545059	0.578547	0.137863	0	0	0.253705	-0.130692	-0.598879	0.394742	0.131325	0	0	-0.415729	0.0312813	0.0693201	0.386776	-0.448003	-0.0899864	1.30959	0.877871	0	0	0.372478	-0.369685	6.24345e-05	1.29517	0.883324	0	0
71.33	0.00609773	1.48341	1.52102	0.689193	0.184005	1.00781	0.33856	-0.207404	-0.551778	0.555818	0.13217	0	0	0.239644	-0.127969	-0.595936	0.372618	0.12084	0	0	-0.409649	0.0334499	0.0720996	0.380496	-0.449799	-0.089767	1.31069	0.877155	0	0	0.365072	-0.367209	-0.00331702	1.29662	0.887335	0	0
71.34	0.0431599	1.4876	1.4826	0.689809	0.184452	1.00984	0.322405	-0.197999	-0.55845	0.532596	0.126058	0	0	0.225348	-0.124944	-0.592686	0.34979	0.109725	0	0	-0.403897	0.0356061	0.0746662	0.374245	-0.45125	-0.0903506	1.31177	0.876265	0	0	0.358302	-0.364736	-0.0060539	1.29751	0.891231	0	0
71.35	0.0802492	1.49151	1.44437	0.690387	0.184833	1.01179	0.306778	-0.188742	-0.564189	0.509455	0.119731	0	0	0.211185	-0.121412	-0.58917	0.326425	0.0982189	0	0	-0.398506	0.0375265	0.0769886	0.368209	-0.45259	-0.091371	1.3131	0.875539	0	0	0.352199	-0.362151	-0.00852216	1.29805	0.894632	0	0
71.36	0.123576	1.49536	1.40038	0.690918	0.185179	1.01368	0.29107	-0.178954	-0.568861	0.485854	0.113025	0	0	0.196869	-0.117855	-0.585063	0.302614	0.0864604	0	0	-0.393743	0.0398336	0.078781	0.362706	-0.454049	-0.0921872	1.31457	0.874713	0	0	0.346521	-0.359342	-0.0111243	1.29833	0.897587	0	0
71.37	0.177676	1.49922	1.34639	0.691357	0.185527	1.01551	0.274721	-0.168415	-0.57286	0.461186	0.10579	0	0	0.182261	-0.114553	-0.58	0.278657	0.0749492	0	0	-0.389674	0.0429255	0.0798595	0.357696	-0.455563	-0.092987	1.31611	0.873835	0	0	0.341126	-0.356178	-0.014084	1.29847	0.900377	0	0
71.38	0.248652	1.50325	1.27688	0.691672	0.185938	1.01729	0.256763	-0.15699	-0.577166	0.434698	0.0976748	0	0	0.166847	-0.111436	-0.571969	0.253872	0.062516	0	0	-0.386335	0.0472212	0.0798531	0.352607	-0.456587	-0.0944328	1.31779	0.872762	0	0	0.335953	-0.352574	-0.0174791	1.29833	0.904066	0	0
71.39	0.318976	1.50605	1.20837	0.691974	0.186211	1.0188	0.240729	-0.146284	-0.581337	0.410238	0.0909428	0	0	0.153462	-0.108747	-0.564218	0.231308	0.0512035	0	0	-0.382768	0.0512523	0.0794964	0.347803	-0.457283	-0.0963957	1.31945	0.871685	0	0	0.331313	-0.349485	-0.0202349	1.29832	0.90732	0	0
71.4	0.37095	1.51005	1.15938	0.692056	0.186507	1.02041	0.223049	-0.137783	-0.585275	0.384141	0.0833271	0	0	0.131732	-0.0967502	-0.536849	0.186984	0.027268	0	0	-0.380418	0.0535578	0.0773837	0.343593	-0.456871	-0.0993736	1.32022	0.870733	0	0	0.327834	-0.347171	-0.0214409	1.29732	0.909396	0	0
71.41	0.469614	1.51304	1.06575	0.692154	0.186922	1.02181	0.203112	-0.125766	-0.590377	0.354437	0.0750521	0	0	0.115622	-0.0933599	-0.521249	0.159604	0.0109495	0	0	-0.378171	0.0589057	0.0744374	0.338959	-0.456524	-0.103022	1.3216	0.869925	0	0	0.324305	-0.345182	-0.021731	1.29668	0.910358	0	0
71.42	0.576582	1.51504	0.963885	0.692355	0.187316	1.02305	0.183018	-0.11252	-0.593192	0.322448	0.0656355	0	0	0.100086	-0.0909858	-0.506363	0.133408	-0.00390636	0	0	-0.375629	0.0642133	0.0715186	0.334212	-0.456025	-0.106587	1.32319	0.869598	0	0	0.320966	-0.343975	-0.0215326	1.29607	0.911401	0	0
71.43	0.688432	1.51591	0.857153	0.692628	0.187723	1.02415	0.162929	-0.0980953	-0.59342	0.288678	0.0545632	0	0	0.0853615	-0.0898107	-0.493008	0.108856	-0.0175902	0	0	-0.37252	0.0696092	0.0684517	0.329342	-0.455381	-0.109831	1.32493	0.870141	0	0	0.317341	-0.343102	-0.0215566	1.2953	0.913798	0	0
71.44	0.763972	1.5153	0.785585	0.692979	0.187986	1.02492	0.146917	-0.0854427	-0.5918	0.258634	0.0452663	0	0	0.0731593	-0.0882597	-0.482163	0.0853089	-0.0301677	0	0	-0.367896	0.0735674	0.0659314	0.324239	-0.454897	-0.112482	1.32712	0.87102	0	0	0.31347	-0.342182	-0.022364	1.29472	0.915643	0	0
71.45	0.841942	1.51378	0.712116	0.693279	0.188336	1.02559	0.130242	-0.0712992	-0.586293	0.225773	0.0335722	0	0	0.060785	-0.0875507	-0.470963	0.0610976	-0.0435941	0	0	-0.363075	0.0784689	0.0632315	0.318676	-0.455016	-0.114893	1.3298	0.872262	0	0	0.309356	-0.340314	-0.0238977	1.29438	0.915056	0	0
71.46	0.840911	1.51091	0.715113	0.693678	0.188324	1.02574	0.123846	-0.0632397	-0.583523	0.206879	0.0289035	0	0	0.053885	-0.0855967	-0.464669	0.0399272	-0.0544052	0	0	-0.355057	0.0805734	0.062219	0.313273	-0.455637	-0.116812	1.33279	0.872393	0	0	0.305076	-0.338654	-0.0253533	1.29479	0.915114	0	0
71.47	0.843751	1.50847	0.714842	0.693902	0.188426	1.02581	0.11824	-0.0566931	-0.580904	0.19122	0.0243503	0	0	0.0460855	-0.0833253	-0.458794	0.0181857	-0.0653735	0	0	-0.347512	0.0832205	0.0606468	0.307916	-0.456997	-0.118339	1.33644	0.872815	0	0	0.300662	-0.336496	-0.0274758	1.29469	0.915967	0	0
71.48	0.838533	1.50618	0.721782	0.694104	0.188487	1.02572	0.1163	-0.0528466	-0.579269	0.182968	0.0213667	0	0	0.0375323	-0.080163	-0.452339	0	-0.0769562	0	0	-0.34003	0.0856804	0.0594473	0.303402	-0.458984	-0.118778	1.3402	0.873461	0	0	0.295981	-0.334297	-0.0296353	1.29481	0.916934	0	0
71.49	0.827897	1.50586	0.737959	0.694558	0.18811	1.02568	0.117942	-0.0517681	-0.577833	0.184943	0.0197828	0	0	0.0383645	-0.0830386	-0.457938	0	-0.0777015	0	0	-0.333915	0.0861492	0.055599	0.299053	-0.460681	-0.118144	1.3434	0.874655	0	0	0.292151	-0.332556	-0.0319101	1.29558	0.920236	0	0
71.5	0.809005	1.5052	0.757136	0.695	0.187811	1.02551	0.12237	-0.0537691	-0.580149	0.191888	0.022084	0	0	0.0379489	-0.082502	-0.459112	0	-0.0805604	0	0	-0.32783	0.0861986	0.0544445	0.296413	-0.461869	-0.1167	1.34582	0.87565	0	0	0.287069	-0.331215	-0.0344178	1.29718	0.919837	0	0
71.51	0.790486	1.50525	0.775417	0.695493	0.187544	1.02535	0.127636	-0.0570742	-0.584011	0.202009	0.0257761	0	0	0.0372011	-0.0815018	-0.459612	0	-0.0825946	0	0	-0.322536	0.0854861	0.0530483	0.294528	-0.462296	-0.114703	1.34721	0.875333	0	0	0.281653	-0.329969	-0.038114	1.29937	0.920287	0	0
71.52	0.78368	1.50601	0.782214	0.695965	0.187407	1.02525	0.131813	-0.0603605	-0.588838	0.212554	0.0297335	0	0	0.0359984	-0.0808028	-0.459408	0	-0.0837401	0	0	-0.318552	0.0846472	0.0509721	0.293748	-0.462185	-0.111867	1.34748	0.873999	0	0	0.276307	-0.329306	-0.0425426	1.30124	0.921133	0	0
71.53	0.794881	1.50746	0.771718	0.696537	0.187409	1.02526	0.133493	-0.0628351	-0.593897	0.221072	0.0327254	0	0	0.0340639	-0.080757	-0.457164	0	-0.0849028	0	0	-0.316032	0.0839531	0.0481538	0.293711	-0.461442	-0.108997	1.34686	0.872871	0	0	0.271264	-0.329407	-0.0467015	1.30282	0.922393	0	0
